<svg t="1651905188548" class="icon" viewBox="0 0 1024 1024" version="1.1" xmlns="http://www.w3.org/2000/svg" p-id="1025" width="200" height="200"><path d="M358.4 128H156.8C105.6 128 64 166.4 64 217.6v204.8C64 473.6 105.6 512 153.6 512h204.8C409.6 512 448 470.4 448 422.4V217.6C448 166.4 409.6 128 358.4 128z m576.512 99.136l-137.92-137.856a86.976 86.976 0 0 0-122.56 0L536.512 227.136c-15.36 15.36-24.512 36.736-24.512 61.248s9.216 45.952 24.512 61.248l137.92 137.856c15.36 15.36 36.736 24.512 61.312 24.512 24.512 0 45.952-9.216 61.248-24.512l137.92-137.856c15.36-15.296 24.512-36.736 24.512-61.248a66.56 66.56 0 0 0-24.512-61.248zM357.632 576H154.368C102.72 576 64 617.6 64 665.6v204.8c0 51.2 41.92 89.6 90.368 89.6h203.264C409.28 960 448 918.4 448 870.4v-204.8C448 614.4 409.28 576 357.632 576zM806.4 576H601.6C550.4 576 512 617.6 512 665.6v204.8c0 51.2 41.6 89.6 89.6 89.6h204.8c51.2 0 89.6-41.6 89.6-89.6v-204.8c0-51.2-38.4-89.6-89.6-89.6z" p-id="1026"></path></svg>