<svg t="1651564701077" viewBox="0 0 1106 1024" version="1.1" xmlns="http://www.w3.org/2000/svg" p-id="2786" width="200" height="200"><path d="M927.681012 812.138276c-70.201724-20.03475-130.806592 5.376642-210.885518-5.581895-10.648154-1.4568-21.286296-4.039991-31.914425-7.26898-17.912128-10.553037-37.441253-32.31492-44.645153-77.550803-3.088816-19.469051-1.566936-30.502682 21.276284-46.407329 41.566349-17.591732 79.828616-46.64262 101.86584-92.869727 5.191413-10.883445 13.807057-22.713059 17.03104-35.563934 5.211438-20.775665-2.638259-30.292422 1.642028-42.437425 4.850993-13.797044 9.476707-24.710526 20.840746-36.059546 24.945817-24.960835 35.173452-18.437777 28.68043-59.643681-17.206256-109.169863-47.648863-147.507223-57.260737-188.467824-7.764592-33.035811 7.013664-26.202369-8.13505-88.279056-19.559162-80.144006-114.691685-109.445203-228.507287-96.559284-199.146015 22.542848-289.552699 180.172576-289.552699 334.328012 0 78.431891 18.467814 122.696573 42.066968 174.470533 22.983393 50.427295 52.204491 82.091412 89.695805 106.521591l4.155134 4.175158c-7.073739-4.845986 150.395792 125.920556-45.366043 161.90501-98.641857 10.472938-136.133172-6.668238-212.452454 15.098652-85.450561 31.183523-94.661941 87.022503-93.605636 162.545801H1072.224574c3.989929-108.589146-42.122036-153.134175-144.543562-182.355273z" fill="#4E6070" p-id="2787"></path></svg>