<svg t="1651564614673" viewBox="0 0 1024 1024" version="1.1" xmlns="http://www.w3.org/2000/svg" p-id="2640" width="200" height="200"><path d="M513.461607 518.060855m-490.119658 0a490.119658 490.119658 0 1 0 980.239316 0 490.119658 490.119658 0 1 0-980.239316 0Z" fill="#4E6070" p-id="2641"></path><path d="M620.762803 502.031316c-24.068376 0-43.760684 19.692308-43.760683 43.760684v182.206359c0 24.068376-19.692308 43.760684-43.760684 43.760684h-39.56841c-24.068376 0-43.760684-19.692308-43.760684-43.760684v-182.206359c0-24.068376-19.692308-43.760684-43.760684-43.760684H324.192274c-24.068376 0-29.976068-14.060308-13.12383-31.249504l171.756308-175.169641a42.854838 42.854838 0 0 1 61.27371 0l171.751931 175.169641c16.852239 17.184821 10.944547 31.249504-13.123829 31.249504h-81.963761z" fill="#00CCC6" p-id="2642"></path></svg>