<svg t="1651908371032" class="icon" viewBox="0 0 1024 1024" version="1.1" xmlns="http://www.w3.org/2000/svg" p-id="1174" width="200" height="200"><path d="M800 368a304 304 0 1 1-608 0 304 304 0 0 1 608 0z" fill="#FFC2C2" p-id="1175"></path><path d="M384 646.112L624.096 96C731.2 144.32 800 251.936 800 371.072 800 537.28 667.52 672 504.064 672A291.84 291.84 0 0 1 384 646.112z" fill="#FFD9D9" p-id="1176"></path><path d="M928 832c0 70.72-186.24 128-416 128S96 902.72 96 832s186.24-128 416-128 416 57.28 416 128z" fill="#FF8686" p-id="1177"></path></svg>